<?xml version="1.0" standalone="no"?>
<!DOCTYPE svg PUBLIC "-//W3C//DTD SVG 20010904//EN"
 "http://www.w3.org/TR/2001/REC-SVG-20010904/DTD/svg10.dtd">
<svg version="1.0" xmlns="http://www.w3.org/2000/svg"
 width="24px" height="24px" viewBox="0 0 400.000000 400.000000"
 preserveAspectRatio="xMidYMid meet">
<g transform="translate(0.000000,400.000000) scale(0.100000,-0.100000)"
fill="#000000" stroke="none">
<path d="M1750 3985 c-368 -46 -708 -188 -1005 -420 -98 -77 -281 -264 -356
-365 -170 -227 -297 -509 -361 -800 -21 -96 -23 -129 -23 -395 0 -266 2 -299
23 -395 35 -158 96 -335 161 -467 110 -223 197 -348 366 -522 175 -180 345
-304 567 -411 691 -334 1501 -244 2113 235 98 77 281 264 356 365 529 710 529
1680 0 2390 -75 101 -258 288 -356 365 -427 334 -961 485 -1485 420z m515
-1014 c184 -49 318 -145 388 -279 43 -84 55 -121 65 -204 l8 -66 -125 -6 c-69
-3 -156 -8 -193 -10 l-66 -5 -21 67 c-44 146 -150 212 -337 212 -200 0 -336
-86 -321 -203 14 -104 84 -143 407 -227 345 -89 460 -140 563 -250 74 -78 111
-147 132 -245 69 -325 -115 -618 -439 -700 -199 -50 -491 -44 -659 14 -244 85
-398 282 -442 567 l-6 40 173 17 c95 10 180 17 189 17 11 0 21 -19 33 -61 60
-218 191 -307 435 -296 123 5 162 16 227 60 69 46 106 103 112 171 6 71 -11
117 -57 159 -49 44 -102 64 -359 131 -330 87 -425 129 -533 237 -161 160 -194
389 -86 593 79 148 247 253 457 285 107 16 362 6 455 -18z"/>
</g>
</svg>
